<?xml version="1.0" standalone="no"?>
<!DOCTYPE svg PUBLIC "-//W3C//DTD SVG 20010904//EN" "http://www.w3.org/TR/2001/REC-SVG-20010904/DTD/svg10.dtd">
<svg version="1.0" xmlns="http://www.w3.org/2000/svg" width="299.000000pt" height="299.000000pt" viewBox="0 0 299.000000 299.000000" preserveAspectRatio="xMidYMid meet">
  <g transform="translate(0.000000,299.000000) scale(0.100000,-0.100000)" fill="#ff6f00" stroke="none">
    <path d="M1430 2761 c-71 -23 -130 -73 -152 -130 -6 -17 -10 -317 -10 -820 0
-436 -3 -805 -7 -819 -7 -24 -17 -16 -202 160 -108 102 -211 194 -230 204 -24
13 -56 19 -105 19 -61 0 -77 -4 -120 -30 -89 -55 -127 -169 -85 -260 19 -41
57 -79 420 -426 112 -107 247 -236 300 -287 114 -109 162 -141 227 -148 110
-13 114 -10 546 405 407 392 430 415 449 456 91 197 -167 383 -344 248 -20
-16 -115 -104 -212 -196 -97 -93 -180 -166 -183 -162 -4 4 -9 377 -12 830 l-5
823 -30 44 c-17 23 -50 53 -73 66 -45 25 -131 37 -172 23z" />
  </g>
</svg>