<?xml version="1.0" encoding="utf-8"?>
<!-- Generator: Adobe Illustrator 28.1.0, SVG Export Plug-In . SVG Version: 6.00 Build 0)  -->
<svg version="1.1" id="Ebene_1" xmlns:serif="http://www.serif.com/"
	 xmlns="http://www.w3.org/2000/svg" xmlns:xlink="http://www.w3.org/1999/xlink" x="0px" y="0px" viewBox="0 0 32 32"
	 style="enable-background:new 0 0 32 32;" xml:space="preserve">
<style type="text/css">
	.st0{fill:#F7F7F7;}
</style>
<g>
	<g>
		<path class="st0" d="M26.9,8.5c-2.5-1-6.1-0.9-8.8,2.1l-0.8,0.9l2.5,3l1.1-1.4c0.8-0.9,1.9-1.4,3.1-1.4c1,0,2,0.4,2.8,1
			c0.7,0.6,1.6,1.6,1.6,3.3s-0.9,2.8-1.6,3.3c-0.8,0.6-1.8,1-2.8,1c-1.2,0-2.2-0.5-3.1-1.4l-6.9-8.2c-2.7-3-6.3-3.1-8.8-2.1
			C2.6,9.5,0,11.9,0,16s2.6,6.5,5.1,7.5c2.5,1,6.1,0.9,8.8-2.1l0.8-0.9l-2.5-3l-1.1,1.4c-0.8,0.9-1.9,1.4-3.1,1.4c-1,0-2-0.4-2.8-1
			c-0.7-0.6-1.6-1.6-1.6-3.3s0.9-2.8,1.6-3.3c0.8-0.6,1.8-1,2.8-1c1.2,0,2.2,0.5,3.1,1.4l6.9,8.2c2.7,3,6.3,3.1,8.8,2.1
			c2.5-1,5.1-3.4,5.1-7.5S29.3,9.5,26.9,8.5"/>
	</g>
</g>
</svg>
