<?xml version="1.0" encoding="UTF-8"?>
<svg id="SP_SIMPLE" xmlns="http://www.w3.org/2000/svg" xmlns:xlink="http://www.w3.org/1999/xlink" viewBox="0 0 2048 2048">
  <defs>
    <style>
      .cls-1 {
        fill: #c8c7c6;
      }

      .cls-1, .cls-2, .cls-3, .cls-4, .cls-5, .cls-6 {
        stroke-width: 0px;
      }

      .cls-2 {
        fill: #f26a24;
      }

      .cls-3 {
        fill: url(#radial-gradient);
      }

      .cls-4 {
        fill: #f26a21;
      }

      .cls-5 {
        fill: #fff;
      }

      .cls-6 {
        fill: #ce5c28;
      }
    </style>
    <radialGradient id="radial-gradient" cx="1119.18" cy="1188.53" fx="1119.18" fy="1188.53" r="905.91" gradientTransform="translate(-115.07 -314.48) scale(1.02 1.13)" gradientUnits="userSpaceOnUse">
      <stop offset="0" stop-color="#939598"/>
      <stop offset=".09" stop-color="#838588"/>
      <stop offset=".38" stop-color="#5b5c5d"/>
      <stop offset=".63" stop-color="#3e3e3f"/>
      <stop offset=".85" stop-color="#2c2c2c"/>
      <stop offset="1" stop-color="#262626"/>
    </radialGradient>
  </defs>
  <path class="cls-3" d="M1009.75,530.44l-364.55,232.89,364.55,232.89v-465.78ZM1009.75,1517.56v-465.78l-364.55,232.89,364.55,232.89ZM1417.79,791.11l-364.55,232.89,364.55,232.89v-465.78ZM1038.25,1517.56l364.55-232.89-364.55-232.89v465.78ZM1038.25,996.22l364.55-232.89-364.55-232.89v465.78ZM630.21,1256.89l364.55-232.89-364.55-232.89v465.78Z"/>
  <g>
    <path class="cls-5" d="M946.03,1450.57h-21.75v-6.68c0-3.12-.28-5.1-.83-5.95-.56-.85-1.48-1.28-2.78-1.28-1.41,0-2.48.58-3.2,1.73-.72,1.15-1.08,2.89-1.08,5.23,0,3.01.41,5.27,1.22,6.79.78,1.52,2.98,3.36,6.62,5.51,10.43,6.19,16.99,11.27,19.7,15.24,2.71,3.97,4.06,10.37,4.06,19.19,0,6.42-.75,11.15-2.25,14.19-1.5,3.04-4.4,5.59-8.71,7.65-4.3,2.06-9.31,3.09-15.02,3.09-6.27,0-11.62-1.19-16.05-3.56-4.43-2.37-7.34-5.4-8.71-9.07-1.37-3.67-2.06-8.88-2.06-15.63v-5.9h21.75v10.96c0,3.38.31,5.55.92,6.51.61.97,1.7,1.45,3.25,1.45s2.72-.61,3.48-1.84c.76-1.22,1.14-3.04,1.14-5.45,0-5.3-.72-8.77-2.17-10.4-1.48-1.63-5.14-4.36-10.96-8.18-5.82-3.86-9.68-6.66-11.57-8.4-1.89-1.74-3.46-4.15-4.7-7.23-1.24-3.08-1.86-7.01-1.86-11.79,0-6.9.88-11.94,2.64-15.13,1.76-3.19,4.61-5.68,8.54-7.48,3.93-1.8,8.68-2.7,14.24-2.7,6.08,0,11.27.98,15.55,2.95,4.28,1.97,7.12,4.44,8.51,7.43,1.39,2.99,2.09,8.06,2.09,15.22v3.56Z"/>
    <path class="cls-5" d="M978.74,1423.31v90.07h-23.42v-90.07h23.42Z"/>
    <path class="cls-5" d="M1040.44,1423.31v90.07h-20.53l-12.18-40.95v40.95h-19.58v-90.07h19.58l13.13,40.56v-40.56h19.58Z"/>
    <path class="cls-5" d="M1104.53,1462.53h-23.42v-15.66c0-4.55-.25-7.39-.75-8.52-.5-1.13-1.61-1.69-3.31-1.69-1.93,0-3.15.69-3.67,2.06-.52,1.37-.78,4.34-.78,8.9v41.84c0,4.38.26,7.23.78,8.57.52,1.34,1.69,2,3.5,2s2.88-.67,3.42-2.01c.54-1.34.81-4.48.81-9.43v-11.32h23.42v3.51c0,9.32-.66,15.93-1.97,19.83-1.32,3.9-4.23,7.32-8.73,10.25-4.51,2.93-10.06,4.4-16.66,4.4s-12.52-1.24-16.97-3.73-7.4-5.92-8.85-10.32-2.17-11.01-2.17-19.83v-26.31c0-6.49.22-11.36.67-14.6.45-3.24,1.77-6.37,3.98-9.37,2.21-3,5.27-5.37,9.18-7.09,3.91-1.72,8.41-2.59,13.49-2.59,6.9,0,12.59,1.33,17.08,4,4.49,2.67,7.44,5.99,8.85,9.97,1.41,3.98,2.11,10.18,2.11,18.58v8.56Z"/>
    <path class="cls-5" d="M1112.93,1423.31h39.05v18.03h-15.63v17.08h14.63v17.13h-14.63v19.81h17.19v18.03h-40.61v-90.07Z"/>
    <path class="cls-4" d="M959.8,1600.56v15.35h-49.46v-12.85c14.66-23.96,23.37-38.78,26.13-44.48,2.76-5.69,4.14-10.13,4.14-13.32,0-2.45-.42-4.27-1.25-5.48-.84-1.2-2.11-1.81-3.82-1.81s-2.98.67-3.82,2-1.25,3.99-1.25,7.96v8.57h-20.14v-3.28c0-5.04.26-9.02.78-11.93.52-2.91,1.8-5.78,3.84-8.6,2.04-2.82,4.69-4.95,7.96-6.4,3.26-1.45,7.18-2.17,11.74-2.17,8.94,0,15.7,2.22,20.28,6.65,4.58,4.43,6.87,10.04,6.87,16.83,0,5.16-1.29,10.61-3.87,16.36-2.58,5.75-10.17,17.95-22.78,36.61h24.65Z"/>
    <path class="cls-4" d="M1021.55,1556.34v30.04c0,6.82-.37,11.79-1.11,14.91-.74,3.12-2.28,6.03-4.62,8.73-2.34,2.71-5.16,4.66-8.46,5.84-3.3,1.19-6.99,1.78-11.07,1.78-5.38,0-9.85-.62-13.41-1.86s-6.4-3.18-8.51-5.81c-2.11-2.63-3.62-5.4-4.51-8.32-.89-2.91-1.34-7.54-1.34-13.88v-31.43c0-8.27.71-14.46,2.14-18.58,1.43-4.12,4.26-7.42,8.51-9.9,4.25-2.48,9.39-3.73,15.44-3.73,4.93,0,9.35.86,13.24,2.59,3.89,1.72,6.81,3.83,8.73,6.31,1.93,2.49,3.24,5.29,3.92,8.4.69,3.12,1.03,8.09,1.03,14.91ZM999.08,1548.77c0-4.78-.23-7.78-.7-8.98-.46-1.2-1.55-1.81-3.25-1.81s-2.77.64-3.31,1.92c-.54,1.28-.81,4.24-.81,8.87v43.95c0,5.23.25,8.38.75,9.46.5,1.08,1.59,1.61,3.25,1.61s2.76-.63,3.28-1.89c.52-1.26.78-4.1.78-8.51v-44.62Z"/>
    <path class="cls-4" d="M1078.08,1600.56v15.35h-49.46v-12.85c14.66-23.96,23.37-38.78,26.13-44.48,2.76-5.69,4.14-10.13,4.14-13.32,0-2.45-.42-4.27-1.25-5.48-.84-1.2-2.11-1.81-3.82-1.81s-2.98.67-3.82,2-1.25,3.99-1.25,7.96v8.57h-20.14v-3.28c0-5.04.26-9.02.78-11.93.52-2.91,1.8-5.78,3.84-8.6,2.04-2.82,4.69-4.95,7.96-6.4,3.26-1.45,7.18-2.17,11.74-2.17,8.94,0,15.7,2.22,20.28,6.65,4.58,4.43,6.87,10.04,6.87,16.83,0,5.16-1.29,10.61-3.87,16.36-2.58,5.75-10.17,17.95-22.78,36.61h24.65Z"/>
    <path class="cls-4" d="M1135.27,1600.56v15.35h-49.46v-12.85c14.66-23.96,23.37-38.78,26.13-44.48,2.76-5.69,4.14-10.13,4.14-13.32,0-2.45-.42-4.27-1.25-5.48-.84-1.2-2.11-1.81-3.82-1.81s-2.98.67-3.82,2-1.25,3.99-1.25,7.96v8.57h-20.14v-3.28c0-5.04.26-9.02.78-11.93.52-2.91,1.8-5.78,3.84-8.6,2.04-2.82,4.69-4.95,7.96-6.4,3.26-1.45,7.18-2.17,11.74-2.17,8.94,0,15.7,2.22,20.28,6.65,4.58,4.43,6.87,10.04,6.87,16.83,0,5.16-1.29,10.61-3.87,16.36-2.58,5.75-10.17,17.95-22.78,36.61h24.65Z"/>
  </g>
  <g>
    <polygon class="cls-4" points="545.58 776.07 545.58 718.51 1024 413.02 1502.42 718.51 1502.42 776.07 1825.82 776.07 1825.82 512 1024 0 222.18 512 222.18 776.07 545.58 776.07"/>
    <polygon class="cls-4" points="1502.42 1271.93 1502.42 1329.49 1024 1634.98 545.58 1329.49 545.58 1271.93 222.18 1271.93 222.18 1536 1024 2048 1825.82 1536 1825.82 1271.93 1502.42 1271.93"/>
  </g>
  <g>
    <polygon class="cls-6" points="1024 413.14 1502.42 718.64 1502.42 776.2 1786.74 776.2 1786.74 537.08 1024 50.04 1024 413.14"/>
    <polygon class="cls-5" points="1502.42 1272.06 1502.42 1329.62 1024 1635.11 1024 1998.21 1786.74 1511.17 1786.74 1272.06 1502.42 1272.06"/>
  </g>
  <g>
    <polygon class="cls-4" points="545.58 776.07 545.58 718.51 1024 413.02 1024 49.92 261.26 536.96 261.26 776.07 545.58 776.07"/>
    <polygon class="cls-1" points="1024 1634.98 545.58 1329.49 545.58 1271.93 261.26 1271.93 261.26 1511.04 1024 1998.08 1024 1634.98"/>
  </g>
  <g>
    <polygon class="cls-5" points="1737.47 776.08 1708.98 776.08 1708.98 585.32 1024 147.92 339.02 585.32 339.02 776.08 310.53 776.08 310.53 569.71 1024 114.13 1737.47 569.71 1737.47 776.08"/>
    <polygon class="cls-5" points="1024 1933.87 310.53 1478.29 310.53 1271.93 339.02 1271.93 339.02 1462.68 1024 1900.08 1708.98 1462.68 1708.98 1271.93 1737.47 1271.93 1737.47 1478.29 1024 1933.87"/>
  </g>
  <g>
    <path class="cls-5" d="M474.57,937.01h-106.46v-32.67c0-15.25-1.36-24.96-4.08-29.13-2.72-4.17-7.26-6.26-13.61-6.26-6.9,0-12.12,2.82-15.66,8.45-3.54,5.63-5.31,14.17-5.31,25.61,0,14.71,1.99,25.79,5.97,33.24,3.8,7.45,14.6,16.43,32.39,26.95,51.02,30.29,83.16,55.14,96.41,74.56,13.25,19.42,19.88,50.74,19.88,93.93,0,31.4-3.68,54.55-11.03,69.43-7.35,14.89-21.56,27.36-42.61,37.44-21.06,10.07-45.56,15.11-73.51,15.11-30.68,0-56.86-5.81-78.55-17.43-21.69-11.61-35.9-26.41-42.61-44.38-6.72-17.97-10.07-43.47-10.07-76.51v-28.86h106.46v53.64c0,16.52,1.5,27.14,4.49,31.86,2.99,4.72,8.3,7.08,15.93,7.08s13.29-3,17.02-8.98c3.72-5.99,5.58-14.88,5.58-26.68,0-25.95-3.54-42.92-10.62-50.91-7.26-7.99-25.14-21.33-53.64-40.02-28.5-18.88-47.37-32.58-56.63-41.11-9.26-8.53-16.93-20.33-23.01-35.39-6.08-15.06-9.12-34.31-9.12-57.72,0-33.76,4.31-58.44,12.93-74.06,8.62-15.61,22.55-27.81,41.79-36.62,19.24-8.8,42.47-13.21,69.7-13.21,29.77,0,55.13,4.81,76.1,14.43,20.96,9.62,34.85,21.74,41.66,36.35,6.81,14.61,10.21,39.44,10.21,74.46v17.43Z"/>
    <path class="cls-5" d="M520.04,803.6h115.44c31.22,0,55.22,2.45,72.01,7.35,16.79,4.9,29.4,11.98,37.85,21.24,8.44,9.26,14.16,20.47,17.15,33.63,3,13.16,4.49,33.54,4.49,61.12v38.39c0,28.14-2.91,48.65-8.71,61.53-5.81,12.89-16.47,22.78-31.99,29.68-15.52,6.9-35.8,10.35-60.85,10.35h-30.77v177.52h-114.62v-440.8ZM634.66,879.02v112.17c3.27.18,6.08.27,8.44.27,10.53,0,17.83-2.59,21.92-7.76,4.08-5.17,6.13-15.93,6.13-32.26v-36.21c0-15.06-2.36-24.87-7.08-29.4-4.72-4.54-14.52-6.81-29.4-6.81Z"/>
    <path class="cls-5" d="M1061.85,1061.71c0,44.29-1.05,75.65-3.13,94.07-2.09,18.43-8.62,35.26-19.6,50.51-10.98,15.25-25.82,26.96-44.51,35.12-18.7,8.17-40.48,12.25-65.35,12.25s-44.79-3.86-63.57-11.57c-18.79-7.71-33.9-19.28-45.33-34.71-11.44-15.43-18.24-32.22-20.42-50.37-2.18-18.15-3.27-49.91-3.27-95.29v-75.42c0-44.29,1.04-75.64,3.13-94.07,2.08-18.42,8.62-35.26,19.6-50.51,10.98-15.25,25.82-26.95,44.52-35.12,18.69-8.17,40.47-12.25,65.34-12.25s44.79,3.86,63.57,11.57c18.79,7.72,33.9,19.29,45.33,34.71,11.43,15.43,18.24,32.22,20.42,50.37,2.18,18.15,3.27,49.92,3.27,95.29v75.42ZM947.22,916.86c0-20.51-1.14-33.62-3.4-39.34-2.27-5.72-6.94-8.58-14.02-8.58-5.99,0-10.58,2.31-13.75,6.94-3.18,4.63-4.76,18.29-4.76,40.98v205.83c0,25.59,1.04,41.38,3.13,47.38,2.08,5.99,6.94,8.98,14.57,8.98s12.8-3.45,14.97-10.35c2.18-6.9,3.27-23.32,3.27-49.28v-202.57Z"/>
    <path class="cls-5" d="M1366.51,1061.71c0,44.29-1.05,75.65-3.13,94.07-2.09,18.43-8.62,35.26-19.6,50.51-10.98,15.25-25.82,26.96-44.51,35.12-18.7,8.17-40.48,12.25-65.34,12.25s-44.79-3.86-63.57-11.57c-18.79-7.71-33.9-19.28-45.33-34.71-11.44-15.43-18.24-32.22-20.42-50.37-2.18-18.15-3.27-49.91-3.27-95.29v-75.42c0-44.29,1.04-75.64,3.13-94.07,2.08-18.42,8.62-35.26,19.6-50.51,10.98-15.25,25.82-26.95,44.52-35.12,18.69-8.17,40.47-12.25,65.34-12.25,23.59,0,44.79,3.86,63.57,11.57,18.79,7.72,33.9,19.29,45.33,34.71,11.43,15.43,18.24,32.22,20.42,50.37,2.18,18.15,3.27,49.92,3.27,95.29v75.42ZM1251.89,916.86c0-20.51-1.14-33.62-3.4-39.34-2.27-5.72-6.94-8.58-14.02-8.58-5.99,0-10.58,2.31-13.75,6.94-3.18,4.63-4.77,18.29-4.77,40.98v205.83c0,25.59,1.04,41.38,3.13,47.38,2.08,5.99,6.94,8.98,14.57,8.98s12.8-3.45,14.97-10.35c2.18-6.9,3.27-23.32,3.27-49.28v-202.57Z"/>
    <path class="cls-5" d="M1665.19,803.6v440.8h-100.47l-59.63-200.39v200.39h-95.84v-440.8h95.84l64.25,198.48v-198.48h95.84Z"/>
    <path class="cls-5" d="M1825.82,803.6v440.8h-114.62v-440.8h114.62Z"/>
  </g>
  <g>
    <polygon class="cls-5" points="1927.57 803.6 1871.84 803.6 1871.84 850.46 1954.7 1024 1871.84 1197.54 1871.84 1244.4 1927.57 1244.4 2039.93 1024 1927.57 803.6"/>
    <polygon class="cls-1" points="1954.7 1024 1871.84 1197.54 1871.84 1244.4 1927.57 1244.4 2039.93 1024 1954.7 1024"/>
  </g>
  <g>
    <polygon class="cls-2" points="1481.36 776.2 1460 776.2 1460 744.63 1024 466.22 588 744.63 588 776.2 566.64 776.2 566.64 732.92 1024 440.88 1481.36 732.92 1481.36 776.2"/>
    <polygon class="cls-2" points="1193.95 1498.6 1193.95 1473.25 1460 1303.37 1460 1272.06 1481.36 1272.06 1481.36 1315.08 1193.95 1498.6"/>
    <polygon class="cls-2" points="852.49 1497.6 566.64 1315.08 566.64 1272.06 588 1272.06 588 1303.37 852.49 1472.26 852.49 1497.6"/>
  </g>
  <g>
    <polygon class="cls-5" points="120.43 1244.4 176.16 1244.4 176.16 1197.54 93.3 1024 176.16 850.46 176.16 803.6 120.43 803.6 8.07 1024 120.43 1244.4"/>
    <polygon class="cls-1" points="93.3 1024 176.16 850.46 176.16 803.6 120.43 803.6 8.07 1024 93.3 1024"/>
  </g>
</svg>