<?xml version="1.0" standalone="no"?>
<!DOCTYPE svg PUBLIC "-//W3C//DTD SVG 20010904//EN" "http://www.w3.org/TR/2001/REC-SVG-20010904/DTD/svg10.dtd">
<svg version="1.0" xmlns="http://www.w3.org/2000/svg" width="360.000000pt" height="360.000000pt" viewBox="0 0 360.000000 360.000000" preserveAspectRatio="xMidYMid meet">
  <g transform="translate(0.000000,360.000000) scale(0.100000,-0.100000)" fill="#ff6f00" stroke="none">
    <path d="M1583 3350 c-159 -22 -341 -83 -514 -172 -141 -72 -255 -156 -376
-280 -124 -124 -199 -227 -277 -378 -111 -215 -162 -404 -172 -640 -24 -545
201 -1012 647 -1345 480 -358 1177 -390 1704 -77 131 78 301 225 412 357 153
182 280 452 328 696 26 131 31 371 11 508 -35 237 -147 516 -277 691 -233 315
-534 514 -922 611 -110 27 -141 31 -312 34 -104 2 -218 0 -252 -5z m474 -95
c505 -80 959 -461 1133 -950 137 -388 107 -828 -82 -1185 -216 -409 -581 -685
-1022 -772 -148 -29 -415 -31 -556 -4 -195 38 -402 125 -567 238 -294 201
-535 564 -608 915 -55 262 -33 567 56 812 171 467 555 809 1039 926 195 46
396 53 607 20z" />
    <path d="M1735 2819 c-279 -40 -485 -271 -485 -544 0 -302 249 -555 545 -555
261 0 476 172 541 430 21 83 14 220 -16 305 -82 235 -344 398 -585 364z" />
    <path d="M1446 1515 c-220 -38 -411 -161 -537 -346 -47 -70 -89 -160 -89 -192
0 -28 108 -132 227 -216 483 -345 1111 -325 1576 50 92 74 157 144 157 169 0
26 -66 156 -108 212 -118 158 -264 259 -448 310 -72 20 -107 22 -389 24 -228
2 -331 -1 -389 -11z" />
  </g>
</svg>